# xmcd
#
# Track frame offsets:
# 150
# 19272
# 40115
# 64677
# 83708
# 102767
# 124391
# 146674
# 168059
# 186977
# 209352
# 228030
#
# Disc length: 3329 seconds
#
# Revision: 1
# Processed by: cddbd v1.5.1PL0 Copyright (c) Steve Scherf et al.
# Submitted via: Easy CD Ripper v2.27
#
DISCID=9b0cff0c
DTITLE=洪愛莉 - 沒有月亮的時候
DYEAR=2002
DGENRE=Blues
TTITLE0=第一首歌
TTITLE1=沒有月亮的時候
TTITLE2=明天我不一定愛你
TTITLE3=留下來
TTITLE4=NO.NO
TTITLE5=愛哭的個性
TTITLE6=讓你去飛
TTITLE7=我不要她
TTITLE8=天空已經沒什麼好幻想的
TTITLE9=邊緣
TTITLE10=猜我在想什麼
TTITLE11=誰負責
EXTD=
EXTT0=
EXTT1=
EXTT2=
EXTT3=
EXTT4=
EXTT5=
EXTT6=
EXTT7=
EXTT8=
EXTT9=
EXTT10=
EXTT11=
PLAYORDER=
